<svg width="802" height="537" viewBox="0 0 802 537" fill="none" xmlns="http://www.w3.org/2000/svg">
<g clip-path="url(#clip0_3_4)">
<path d="M658.249 321.503C658.78 321.345 659.322 321.229 659.87 321.157L681.769 276.66L675.083 266.637L688.891 254.57L706.248 275.81L670.897 327.259C671.767 329.204 672.024 331.369 671.633 333.464C671.243 335.559 670.224 337.486 668.712 338.988C667.2 340.49 665.266 341.496 663.168 341.872C661.071 342.249 658.908 341.978 656.968 341.095C655.028 340.212 653.403 338.76 652.309 336.931C651.214 335.102 650.703 332.983 650.842 330.857C650.981 328.73 651.764 326.696 653.087 325.025C654.411 323.354 656.211 322.126 658.249 321.503Z" fill="#E6C3C8"/>
<path d="M695.632 260.718C695.333 261.032 694.991 261.302 694.616 261.519L672.21 274.508C671.672 274.82 671.074 275.017 670.456 275.087C669.837 275.156 669.211 275.097 668.616 274.912C668.022 274.727 667.472 274.42 667.002 274.012C666.532 273.604 666.152 273.103 665.886 272.54L654.989 249.517C654.525 248.549 654.425 247.445 654.707 246.409C654.99 245.373 655.635 244.472 656.526 243.872L670.415 234.424C671.282 233.835 672.328 233.566 673.372 233.666C674.416 233.765 675.393 234.226 676.133 234.968L695.546 254.449C696.372 255.278 696.843 256.396 696.859 257.566C696.875 258.736 696.435 259.867 695.632 260.718Z" fill="#CCCCCC"/>
<path d="M727.092 515.689L715.262 518.908L697.217 474.811L714.677 470.06L727.092 515.689Z" fill="#E6C3C8"/>
<path d="M705.892 517.827L728.707 511.62L732.615 525.984L695.436 536.1C694.923 534.214 694.786 532.245 695.034 530.305C695.282 528.366 695.909 526.495 696.88 524.798C697.851 523.101 699.146 521.612 700.693 520.416C702.239 519.22 704.006 518.34 705.892 517.827Z" fill="#2F2E41"/>
<path d="M625.961 524.716L613.702 524.715L607.869 477.427L625.963 477.428L625.961 524.716Z" fill="#E6C3C8"/>
<path d="M604.944 521.212H628.588V536.099H590.057C590.057 534.144 590.443 532.208 591.191 530.402C591.939 528.596 593.035 526.955 594.418 525.573C595.8 524.19 597.441 523.094 599.247 522.346C601.054 521.597 602.989 521.212 604.944 521.212Z" fill="#2F2E41"/>
<path d="M638.878 218.726C652.443 218.726 663.439 207.73 663.439 194.165C663.439 180.601 652.443 169.604 638.878 169.604C625.313 169.604 614.317 180.601 614.317 194.165C614.317 207.73 625.313 218.726 638.878 218.726Z" fill="#E6C3C8"/>
<path d="M625.211 491H608.457C607.312 490.998 606.21 490.561 605.375 489.776C604.54 488.992 604.035 487.92 603.961 486.777C598.969 407.416 601.889 350.488 613.151 307.624C613.2 307.436 613.261 307.252 613.333 307.072L614.231 304.829C614.562 303.992 615.138 303.275 615.883 302.77C616.629 302.265 617.509 301.997 618.409 302H652.861C653.51 301.999 654.152 302.14 654.742 302.411C655.331 302.682 655.856 303.078 656.278 303.571L660.957 309.031C661.048 309.138 661.134 309.246 661.216 309.36C682.317 338.786 701.227 396.315 723.128 473.639C723.452 474.762 723.324 475.968 722.771 476.999C722.218 478.029 721.285 478.803 720.17 479.155L702.165 484.917C701.132 485.242 700.015 485.186 699.02 484.758C698.024 484.33 697.215 483.559 696.74 482.585L650.018 385.678C649.691 385.001 649.155 384.446 648.488 384.098C647.822 383.749 647.062 383.624 646.319 383.741C645.576 383.859 644.891 384.212 644.365 384.749C643.838 385.286 643.499 385.979 643.397 386.724L629.669 487.109C629.518 488.186 628.985 489.172 628.166 489.886C627.347 490.601 626.297 490.996 625.211 491Z" fill="#2F2E41"/>
<path d="M659.068 309.431C659.021 309.431 658.974 309.43 658.927 309.429L617.079 308.107C616.003 308.077 614.974 307.661 614.179 306.935C613.384 306.21 612.877 305.222 612.75 304.153C607.445 261.212 621.994 249.708 628.496 246.756C629.039 246.511 629.51 246.129 629.862 245.649C630.215 245.168 630.437 244.605 630.508 244.013L631.07 239.512C631.166 238.717 631.473 237.962 631.96 237.326C642.153 224.121 656.072 219.893 663.462 218.548C664.062 218.44 664.677 218.455 665.27 218.593C665.863 218.73 666.422 218.986 666.913 219.346C667.405 219.706 667.817 220.163 668.127 220.687C668.436 221.212 668.636 221.793 668.713 222.397L669.556 228.86C669.642 229.477 669.888 230.06 670.27 230.552C691.529 258.344 667.845 299.379 662.881 307.322C662.476 307.967 661.913 308.499 661.247 308.868C660.58 309.236 659.83 309.43 659.068 309.431Z" fill="#CCCCCC"/>
<path d="M688.431 196.93C682.952 189.215 676.382 182.337 668.926 176.51C662.728 171.669 655.828 167.532 648.216 165.554C640.604 163.575 632.198 163.912 625.253 167.603C618.308 171.294 611.128 178.627 611.084 186.492C611.07 189.019 611.713 192.437 614.201 192L614.921 192.096C620.923 190.883 626.925 189.671 632.927 188.458C635.484 197.33 638.041 206.202 640.597 215.074C641.136 216.944 641.859 219.035 643.633 219.832C645.305 220.583 647.238 219.876 648.929 219.17C649.208 219.053 651.598 213.688 651.598 213.688C651.658 213.52 651.761 213.372 651.898 213.258C652.034 213.143 652.199 213.068 652.374 213.038C652.55 213.009 652.73 213.027 652.897 213.09C653.063 213.154 653.209 213.261 653.32 213.4L654.74 215.174C655.012 215.513 655.386 215.755 655.807 215.863C656.227 215.97 656.672 215.938 657.072 215.77C666.861 211.684 676.649 207.598 686.438 203.512C687.791 202.947 689.303 202.21 689.695 200.797C690.071 199.444 689.244 198.076 688.431 196.93Z" fill="#2F2E41"/>
<path d="M800.953 537H499.953C499.688 537 499.433 536.895 499.246 536.707C499.058 536.52 498.953 536.265 498.953 536C498.953 535.735 499.058 535.48 499.246 535.293C499.433 535.105 499.688 535 499.953 535H800.953C801.218 535 801.472 535.105 801.66 535.293C801.847 535.48 801.953 535.735 801.953 536C801.953 536.265 801.847 536.52 801.66 536.707C801.472 536.895 801.218 537 800.953 537Z" fill="#3F3D56"/>
<path d="M637.77 381.164C637.089 381.161 636.428 380.942 635.881 380.539L631.329 377.231C630.951 376.956 630.495 376.807 630.028 376.807C629.56 376.807 629.104 376.956 628.727 377.231L624.175 380.539C623.626 380.937 622.965 381.152 622.286 381.152C621.608 381.152 620.946 380.938 620.397 380.539C619.848 380.14 619.44 379.578 619.23 378.932C619.02 378.287 619.02 377.592 619.23 376.946L620.969 371.595C621.114 371.151 621.114 370.672 620.97 370.227C620.825 369.782 620.543 369.395 620.164 369.121L615.612 365.813C615.063 365.414 614.655 364.852 614.445 364.206C614.235 363.561 614.235 362.866 614.445 362.22C614.655 361.575 615.064 361.013 615.612 360.614C616.161 360.215 616.823 360 617.501 360H623.128C623.595 360.001 624.051 359.853 624.429 359.578C624.808 359.304 625.089 358.916 625.233 358.471L626.971 353.12C627.181 352.474 627.59 351.912 628.139 351.513C628.688 351.114 629.349 350.899 630.028 350.899C630.706 350.899 631.367 351.114 631.916 351.513C632.465 351.912 632.874 352.474 633.084 353.12L634.823 358.471C634.966 358.916 635.247 359.304 635.626 359.578C636.004 359.853 636.46 360.001 636.927 360H642.554C643.233 360 643.894 360.215 644.443 360.614C644.992 361.013 645.4 361.575 645.61 362.22C645.82 362.866 645.82 363.561 645.61 364.206C645.4 364.852 644.992 365.414 644.443 365.813L639.891 369.12C639.512 369.394 639.23 369.782 639.086 370.227C638.941 370.671 638.942 371.151 639.087 371.595L640.826 376.946C641.043 377.591 641.047 378.289 640.836 378.936C640.626 379.583 640.213 380.145 639.658 380.539C639.111 380.942 638.45 381.161 637.77 381.164Z" fill="#F7D050"/>
<path d="M655.165 370.466C656.451 369.564 657.523 368.391 658.307 367.03C659.09 365.669 659.566 364.153 659.7 362.588C659.834 361.023 659.623 359.448 659.083 357.974C658.542 356.499 657.685 355.161 656.572 354.054L664.345 260.182L641.201 263.366L640.76 354.571C639.024 356.565 638.08 359.127 638.106 361.771C638.132 364.415 639.127 366.957 640.903 368.916C642.678 370.876 645.111 372.116 647.739 372.401C650.368 372.687 653.01 371.998 655.165 370.466Z" fill="#E6C3C8"/>
<path d="M665.857 273.699C665.424 273.699 664.992 273.637 664.577 273.514L639.731 266.206C639.134 266.03 638.579 265.733 638.103 265.332C637.627 264.931 637.239 264.436 636.964 263.878C636.688 263.319 636.532 262.71 636.505 262.088C636.477 261.466 636.579 260.845 636.804 260.265L645.999 236.511C646.382 235.507 647.114 234.676 648.06 234.167C649.006 233.658 650.103 233.506 651.151 233.739L667.566 237.308C668.591 237.531 669.505 238.105 670.152 238.93C670.799 239.756 671.137 240.781 671.108 241.829L670.345 269.321C670.312 270.491 669.825 271.602 668.988 272.419C668.15 273.236 667.027 273.695 665.857 273.699Z" fill="#CCCCCC"/>
<path d="M432 391H7C5.14412 390.998 3.36485 390.26 2.05255 388.947C0.740248 387.635 0.00208302 385.856 0 384V257C0.00208302 255.144 0.740248 253.365 2.05255 252.053C3.36485 250.74 5.14412 250.002 7 250H432C433.856 250.002 435.635 250.74 436.948 252.053C438.26 253.365 438.998 255.144 439 257V384C438.998 385.856 438.26 387.635 436.948 388.947C435.635 390.26 433.856 390.998 432 391ZM7 252C5.67439 252.002 4.40352 252.529 3.46617 253.466C2.52882 254.404 2.00154 255.674 2 257V384C2.00154 385.326 2.52882 386.596 3.46617 387.534C4.40352 388.471 5.67439 388.998 7 389H432C433.326 388.998 434.597 388.471 435.534 387.534C436.471 386.597 436.999 385.326 437 384V257C436.999 255.674 436.471 254.403 435.534 253.466C434.597 252.529 433.326 252.002 432 252H7Z" fill="#3F3D56"/>
<path d="M183.491 407.899C184.217 407.899 184.924 408.129 185.511 408.555C186.024 408.928 186.424 409.436 186.666 410.019L186.76 410.274L188.889 416.828V416.829C189.097 417.474 189.506 418.037 190.055 418.436C190.603 418.835 191.265 419.048 191.943 419.047V419.048H198.837C199.562 419.048 200.269 419.278 200.856 419.705C201.443 420.131 201.88 420.732 202.104 421.422C202.329 422.113 202.329 422.856 202.104 423.546C201.908 424.15 201.549 424.687 201.069 425.097L200.856 425.265L195.28 429.316C194.731 429.714 194.322 430.277 194.112 430.922C193.903 431.567 193.903 432.262 194.113 432.907V432.908L196.243 439.462L196.245 439.468C196.477 440.156 196.481 440.9 196.257 441.59C196.06 442.195 195.698 442.73 195.214 443.135L194.999 443.301L194.992 443.306C194.408 443.737 193.701 443.971 192.975 443.974C192.339 443.971 191.719 443.793 191.183 443.459L190.958 443.306L190.955 443.304L185.379 439.253H185.38C184.832 438.853 184.17 438.637 183.491 438.637C182.897 438.637 182.317 438.803 181.813 439.113L181.602 439.253L176.027 443.304C175.44 443.731 174.732 443.96 174.007 443.96C173.281 443.96 172.574 443.731 171.987 443.304C171.4 442.878 170.964 442.276 170.739 441.586C170.543 440.983 170.518 440.338 170.665 439.724L170.738 439.462L172.868 432.909C173.079 432.264 173.08 431.568 172.87 430.922C172.66 430.277 172.251 429.714 171.701 429.316H171.702L166.126 425.265C165.539 424.839 165.101 424.237 164.877 423.546C164.653 422.856 164.653 422.112 164.877 421.422C165.101 420.732 165.539 420.131 166.126 419.705C166.639 419.332 167.245 419.109 167.874 419.059L168.145 419.048H175.038V419.047C175.717 419.048 176.378 418.835 176.927 418.436C177.475 418.037 177.884 417.475 178.093 416.83L180.223 410.274C180.447 409.584 180.883 408.982 181.471 408.555C182.058 408.129 182.765 407.899 183.491 407.899Z" fill="#F7D050" stroke="black"/>
<path d="M240 407.899C240.725 407.899 241.432 408.129 242.019 408.555C242.533 408.928 242.932 409.436 243.174 410.019L243.267 410.274H243.268L245.397 416.83C245.606 417.475 246.015 418.037 246.563 418.436C247.112 418.835 247.774 419.048 248.452 419.047V419.048H255.345C256.07 419.048 256.778 419.278 257.365 419.705C257.952 420.131 258.389 420.732 258.613 421.422C258.837 422.112 258.837 422.856 258.613 423.546C258.417 424.15 258.058 424.687 257.578 425.097L257.365 425.265L251.789 429.316C251.239 429.714 250.83 430.276 250.62 430.921C250.436 431.486 250.414 432.09 250.553 432.665L250.622 432.909L252.752 439.462L252.754 439.468C252.986 440.156 252.99 440.9 252.766 441.59C252.569 442.194 252.207 442.73 251.723 443.135L251.508 443.301L251.501 443.306C250.916 443.737 250.21 443.971 249.483 443.974C248.848 443.971 248.228 443.793 247.691 443.459L247.467 443.306L247.464 443.304L241.887 439.253H241.888C241.339 438.853 240.678 438.637 240 438.637C239.406 438.637 238.824 438.803 238.321 439.113L238.111 439.253L232.535 443.304C231.948 443.731 231.241 443.96 230.516 443.96C229.79 443.96 229.083 443.731 228.496 443.304C227.909 442.878 227.471 442.277 227.247 441.586C227.051 440.983 227.027 440.338 227.174 439.724L227.247 439.462L229.377 432.909C229.588 432.264 229.588 431.568 229.379 430.922C229.169 430.277 228.76 429.714 228.21 429.316H228.211L222.634 425.265C222.047 424.839 221.61 424.237 221.386 423.546C221.161 422.856 221.161 422.112 221.386 421.422C221.61 420.732 222.048 420.131 222.635 419.705C223.148 419.332 223.753 419.109 224.383 419.059L224.654 419.048H231.547V419.047C232.225 419.048 232.887 418.835 233.435 418.436C233.984 418.037 234.393 417.475 234.601 416.83L236.731 410.274C236.956 409.584 237.392 408.982 237.979 408.555C238.567 408.129 239.274 407.899 240 407.899Z" fill="#F7D050" stroke="black"/>
<path d="M296.508 407.899C297.234 407.899 297.941 408.129 298.528 408.555C299.041 408.928 299.44 409.436 299.682 410.019L299.777 410.274L301.906 416.828V416.829C302.114 417.474 302.523 418.037 303.072 418.436C303.621 418.835 304.282 419.048 304.96 419.047V419.048H311.853C312.579 419.048 313.286 419.278 313.874 419.705C314.46 420.131 314.897 420.732 315.122 421.422C315.346 422.112 315.346 422.856 315.122 423.546C314.925 424.15 314.566 424.687 314.086 425.097L313.874 425.265L308.297 429.316C307.748 429.714 307.339 430.277 307.129 430.922C306.92 431.567 306.92 432.262 307.13 432.907V432.908L309.26 439.462L309.262 439.468C309.494 440.156 309.498 440.9 309.274 441.59C309.078 442.195 308.715 442.729 308.231 443.135L308.016 443.301L308.009 443.306C307.425 443.737 306.718 443.971 305.992 443.974C305.356 443.971 304.736 443.793 304.2 443.459L303.975 443.306L303.972 443.304L298.396 439.253C297.847 438.854 297.187 438.639 296.508 438.639C295.915 438.639 295.334 438.803 294.831 439.112L294.62 439.253L289.043 443.304C288.456 443.731 287.75 443.96 287.024 443.96C286.298 443.96 285.591 443.731 285.004 443.304C284.417 442.878 283.98 442.277 283.755 441.586C283.559 440.983 283.535 440.338 283.682 439.724L283.755 439.462L285.885 432.909C286.096 432.264 286.097 431.568 285.887 430.922C285.677 430.277 285.268 429.714 284.718 429.316H284.719L279.142 425.265C278.555 424.839 278.118 424.237 277.894 423.546C277.67 422.856 277.67 422.112 277.894 421.422C278.118 420.732 278.556 420.131 279.143 419.705C279.657 419.332 280.262 419.109 280.891 419.059L281.163 419.048H288.055V419.047C288.734 419.048 289.395 418.835 289.944 418.436C290.493 418.037 290.901 417.475 291.11 416.83L293.24 410.274C293.464 409.584 293.901 408.982 294.488 408.555C295.075 408.129 295.783 407.899 296.508 407.899Z" fill="#F7D050" stroke="black"/>
<path d="M353.017 407.899C353.742 407.899 354.449 408.129 355.036 408.555C355.55 408.928 355.949 409.436 356.19 410.019L356.285 410.274L358.414 416.828V416.829C358.623 417.474 359.031 418.037 359.58 418.436C360.129 418.835 360.79 419.048 361.469 419.047V419.048H368.361C369.087 419.048 369.795 419.278 370.382 419.705C370.969 420.131 371.406 420.732 371.63 421.422C371.854 422.113 371.854 422.856 371.63 423.546C371.434 424.15 371.075 424.687 370.595 425.097L370.382 425.265L364.806 429.316C364.256 429.714 363.847 430.277 363.638 430.922C363.428 431.567 363.428 432.262 363.639 432.907V432.908L365.769 439.462L365.771 439.468C366.002 440.156 366.006 440.9 365.782 441.59C365.586 442.194 365.224 442.73 364.74 443.135L364.525 443.301L364.518 443.306C363.933 443.737 363.227 443.971 362.501 443.974C361.865 443.971 361.245 443.793 360.708 443.46L360.483 443.306L360.48 443.304L354.904 439.253H354.905C354.357 438.853 353.695 438.637 353.017 438.637C352.423 438.637 351.842 438.803 351.339 439.113L351.128 439.253L345.553 443.304C344.966 443.731 344.258 443.96 343.532 443.961C342.807 443.96 342.1 443.731 341.513 443.304C340.926 442.878 340.489 442.277 340.265 441.586C340.068 440.983 340.043 440.338 340.19 439.724L340.264 439.462L342.394 432.909C342.605 432.264 342.605 431.568 342.396 430.922C342.212 430.358 341.875 429.856 341.426 429.473L341.227 429.316L335.65 425.265C335.063 424.839 334.627 424.237 334.402 423.546C334.178 422.856 334.178 422.113 334.402 421.422C334.627 420.732 335.064 420.131 335.651 419.705C336.165 419.332 336.77 419.109 337.399 419.059L337.671 419.048H344.563V419.047C345.242 419.048 345.903 418.835 346.452 418.436C347.001 418.037 347.409 417.475 347.618 416.83L349.748 410.274C349.972 409.584 350.409 408.982 350.996 408.555C351.583 408.129 352.291 407.899 353.017 407.899Z" fill="#F7D050" stroke="black"/>
<path d="M400.041 444.864C399.126 444.86 398.236 444.566 397.5 444.023C396.753 443.493 396.197 442.736 395.914 441.865C395.631 440.995 395.636 440.056 395.928 439.188L398.059 432.633C398.211 432.166 398.212 431.663 398.06 431.196C397.908 430.729 397.612 430.323 397.214 430.035L391.638 425.983C390.899 425.446 390.349 424.689 390.067 423.821C389.785 422.952 389.785 422.017 390.067 421.148C390.349 420.28 390.899 419.523 391.638 418.986C392.377 418.45 393.266 418.161 394.18 418.161H401.072C401.563 418.162 402.042 418.006 402.439 417.718C402.836 417.429 403.132 417.022 403.282 416.555L405.413 409.999C405.695 409.131 406.245 408.374 406.984 407.837C407.722 407.301 408.612 407.012 409.525 407.012C410.438 407.012 411.328 407.301 412.067 407.837C412.806 408.374 413.355 409.131 413.638 409.999L415.768 416.555C415.918 417.022 416.214 417.429 416.611 417.718C417.008 418.006 417.487 418.161 417.978 418.161H424.871C425.784 418.161 426.673 418.45 427.412 418.986C428.151 419.523 428.701 420.28 428.983 421.148C429.265 422.017 429.265 422.952 428.983 423.821C428.701 424.689 428.151 425.446 427.412 425.983L421.836 430.035C421.438 430.322 421.142 430.729 420.99 431.196C420.838 431.663 420.839 432.166 420.991 432.633L423.121 439.188C423.404 440.056 423.404 440.992 423.121 441.86C422.839 442.729 422.289 443.486 421.55 444.022C420.812 444.559 419.922 444.848 419.009 444.848C418.096 444.848 417.206 444.559 416.467 444.022L410.891 439.971C410.494 439.682 410.016 439.526 409.525 439.526C409.034 439.526 408.556 439.682 408.159 439.971L402.582 444.022C401.846 444.566 400.956 444.86 400.041 444.864ZM409.525 437.525C410.438 437.525 411.328 437.815 412.066 438.353L417.643 442.404C418.04 442.693 418.518 442.848 419.009 442.849C419.5 442.849 419.978 442.693 420.375 442.405C420.772 442.116 421.068 441.709 421.219 441.243C421.371 440.776 421.371 440.273 421.219 439.806L419.089 433.251C418.805 432.383 418.804 431.447 419.087 430.578C419.369 429.709 419.92 428.952 420.66 428.417L426.236 424.365C426.633 424.076 426.929 423.67 427.081 423.203C427.232 422.736 427.232 422.233 427.081 421.766C426.929 421.3 426.633 420.893 426.236 420.604C425.839 420.316 425.361 420.161 424.87 420.161H417.978C417.064 420.162 416.174 419.874 415.435 419.337C414.695 418.8 414.146 418.042 413.865 417.173L411.735 410.618C411.584 410.151 411.288 409.744 410.891 409.456C410.494 409.167 410.016 409.012 409.525 409.012C409.034 409.012 408.556 409.167 408.159 409.456C407.762 409.744 407.466 410.151 407.315 410.618L405.184 417.173C404.904 418.042 404.354 418.8 403.615 419.337C402.876 419.874 401.986 420.162 401.072 420.161H394.18C393.689 420.161 393.21 420.316 392.813 420.604C392.416 420.893 392.121 421.3 391.969 421.766C391.817 422.233 391.817 422.736 391.969 423.203C392.121 423.669 392.416 424.076 392.813 424.365L398.39 428.417C399.13 428.952 399.681 429.709 399.963 430.578C400.245 431.447 400.245 432.383 399.961 433.251L397.83 439.806C397.679 440.273 397.679 440.776 397.83 441.242C397.982 441.709 398.278 442.116 398.675 442.404C399.072 442.693 399.55 442.848 400.041 442.848C400.532 442.848 401.01 442.693 401.407 442.404L406.983 438.353C407.722 437.815 408.612 437.525 409.525 437.525Z" fill="#3F3D56"/>
<path d="M55 280C53.2761 280 51.6228 280.685 50.4038 281.904C49.1848 283.123 48.5 284.776 48.5 286.5C48.5 288.224 49.1848 289.877 50.4038 291.096C51.6228 292.315 53.2761 293 55 293H384C385.724 293 387.377 292.315 388.596 291.096C389.815 289.877 390.5 288.224 390.5 286.5C390.5 284.776 389.815 283.123 388.596 281.904C387.377 280.685 385.724 280 384 280H55Z" fill="#CCCCCC"/>
<path d="M55 314C53.2761 314 51.6228 314.685 50.4038 315.904C49.1848 317.123 48.5 318.776 48.5 320.5C48.5 322.224 49.1848 323.877 50.4038 325.096C51.6228 326.315 53.2761 327 55 327H384C385.724 327 387.377 326.315 388.596 325.096C389.815 323.877 390.5 322.224 390.5 320.5C390.5 318.776 389.815 317.123 388.596 315.904C387.377 314.685 385.724 314 384 314H55Z" fill="#CCCCCC"/>
<path d="M55 348C53.2761 348 51.6228 348.685 50.4038 349.904C49.1848 351.123 48.5 352.776 48.5 354.5C48.5 356.224 49.1848 357.877 50.4038 359.096C51.6228 360.315 53.2761 361 55 361H384C385.724 361 387.377 360.315 388.596 359.096C389.815 357.877 390.5 356.224 390.5 354.5C390.5 352.776 389.815 351.123 388.596 349.904C387.377 348.685 385.724 348 384 348H55Z" fill="#CCCCCC"/>
<path d="M55 280C53.2761 280 51.6228 280.685 50.4038 281.904C49.1848 283.123 48.5 284.776 48.5 286.5C48.5 288.224 49.1848 289.877 50.4038 291.096C51.6228 292.315 53.2761 293 55 293H384C385.724 293 387.377 292.315 388.596 291.096C389.815 289.877 390.5 288.224 390.5 286.5C390.5 284.776 389.815 283.123 388.596 281.904C387.377 280.685 385.724 280 384 280H55Z" fill="#CCCCCC"/>
<path d="M55 314C53.2761 314 51.6228 314.685 50.4038 315.904C49.1848 317.123 48.5 318.776 48.5 320.5C48.5 322.224 49.1848 323.877 50.4038 325.096C51.6228 326.315 53.2761 327 55 327H384C385.724 327 387.377 326.315 388.596 325.096C389.815 323.877 390.5 322.224 390.5 320.5C390.5 318.776 389.815 317.123 388.596 315.904C387.377 314.685 385.724 314 384 314H55Z" fill="#CCCCCC"/>
<path d="M55 348C53.2761 348 51.6228 348.685 50.4038 349.904C49.1848 351.123 48.5 352.776 48.5 354.5C48.5 356.224 49.1848 357.877 50.4038 359.096C51.6228 360.315 53.2761 361 55 361H384C385.724 361 387.377 360.315 388.596 359.096C389.815 357.877 390.5 356.224 390.5 354.5C390.5 352.776 389.815 351.123 388.596 349.904C387.377 348.685 385.724 348 384 348H55Z" fill="#CCCCCC"/>
<path d="M432 141H7C5.14412 140.998 3.36485 140.26 2.05255 138.947C0.740248 137.635 0.00208302 135.856 0 134V7C0.00208302 5.14412 0.740248 3.36485 2.05255 2.05255C3.36485 0.740248 5.14412 0.00208302 7 0H432C433.856 0.00208038 435.635 0.740247 436.948 2.05255C438.26 3.36486 438.998 5.14412 439 7V134C438.998 135.856 438.26 137.635 436.948 138.947C435.635 140.26 433.856 140.998 432 141ZM7 2C5.67439 2.00154 4.40352 2.52881 3.46617 3.46616C2.52882 4.40351 2.00154 5.67439 2 7V134C2.00154 135.326 2.52882 136.596 3.46617 137.534C4.40352 138.471 5.67439 138.998 7 139H432C433.326 138.998 434.597 138.471 435.534 137.534C436.471 136.597 436.999 135.326 437 134V7C436.999 5.67438 436.471 4.40349 435.534 3.46614C434.597 2.52879 433.326 2.00151 432 2H7Z" fill="#3F3D56"/>
<path d="M183.491 157.899C184.217 157.899 184.924 158.129 185.511 158.555C186.024 158.928 186.424 159.436 186.666 160.019L186.76 160.274L188.889 166.828V166.829C189.097 167.474 189.506 168.037 190.055 168.436C190.603 168.835 191.265 169.048 191.943 169.047V169.048H198.837C199.562 169.048 200.269 169.278 200.856 169.705C201.443 170.131 201.88 170.732 202.104 171.422C202.329 172.113 202.329 172.856 202.104 173.546C201.908 174.15 201.549 174.687 201.069 175.097L200.856 175.265L195.28 179.316C194.731 179.714 194.322 180.277 194.112 180.922C193.903 181.567 193.903 182.262 194.113 182.907V182.908L196.243 189.462L196.245 189.468C196.477 190.156 196.481 190.9 196.257 191.59C196.06 192.195 195.698 192.73 195.214 193.135L194.999 193.301L194.992 193.306C194.408 193.737 193.701 193.971 192.975 193.974C192.339 193.971 191.719 193.793 191.183 193.459L190.958 193.306L190.955 193.304L185.379 189.253H185.38C184.832 188.853 184.17 188.637 183.491 188.637C182.897 188.637 182.317 188.803 181.813 189.113L181.602 189.253L176.027 193.304C175.44 193.731 174.732 193.96 174.007 193.96C173.281 193.96 172.574 193.731 171.987 193.304C171.4 192.878 170.964 192.276 170.739 191.586C170.543 190.983 170.518 190.338 170.665 189.724L170.738 189.462L172.868 182.909C173.079 182.264 173.08 181.568 172.87 180.922C172.66 180.277 172.251 179.714 171.701 179.316H171.702L166.126 175.265C165.539 174.839 165.101 174.237 164.877 173.546C164.653 172.856 164.653 172.112 164.877 171.422C165.101 170.732 165.539 170.131 166.126 169.705C166.639 169.332 167.245 169.109 167.874 169.059L168.145 169.048H175.038V169.047C175.717 169.048 176.378 168.835 176.927 168.436C177.475 168.037 177.884 167.475 178.093 166.83L180.223 160.274C180.447 159.584 180.883 158.982 181.471 158.555C181.984 158.182 182.59 157.96 183.22 157.91L183.491 157.899Z" fill="#F7D050" stroke="black"/>
<path d="M240 157.899C240.725 157.899 241.432 158.129 242.019 158.555C242.533 158.928 242.932 159.436 243.174 160.019L243.267 160.274H243.268L245.397 166.83C245.606 167.475 246.015 168.037 246.563 168.436C247.112 168.835 247.774 169.048 248.452 169.047V169.048H255.345C256.07 169.048 256.778 169.278 257.365 169.705C257.952 170.131 258.389 170.732 258.613 171.422C258.837 172.113 258.837 172.856 258.613 173.546C258.417 174.15 258.058 174.687 257.578 175.097L257.365 175.265L251.789 179.316C251.239 179.714 250.83 180.276 250.62 180.921C250.436 181.486 250.414 182.09 250.553 182.665L250.622 182.909L252.752 189.462L252.754 189.468C252.986 190.156 252.99 190.9 252.766 191.59C252.569 192.194 252.207 192.73 251.723 193.135L251.508 193.301L251.501 193.306C250.916 193.737 250.21 193.971 249.483 193.974C248.848 193.971 248.228 193.793 247.691 193.459L247.467 193.306L247.464 193.304L241.887 189.253H241.888C241.339 188.853 240.678 188.637 240 188.637C239.406 188.637 238.824 188.803 238.321 189.113L238.111 189.253L232.535 193.304C231.948 193.731 231.241 193.96 230.516 193.96C229.79 193.96 229.083 193.731 228.496 193.304C227.909 192.878 227.471 192.277 227.247 191.586C227.051 190.983 227.027 190.338 227.174 189.724L227.247 189.462L229.377 182.909C229.588 182.264 229.588 181.568 229.379 180.922C229.169 180.277 228.76 179.714 228.21 179.316H228.211L222.634 175.265C222.047 174.839 221.61 174.237 221.386 173.546C221.161 172.856 221.161 172.112 221.386 171.422C221.61 170.732 222.048 170.131 222.635 169.705C223.148 169.332 223.753 169.109 224.383 169.059L224.654 169.048H231.547V169.047C232.225 169.048 232.887 168.835 233.435 168.436C233.984 168.037 234.393 167.475 234.601 166.83L236.731 160.274C236.956 159.584 237.392 158.982 237.979 158.555C238.493 158.182 239.099 157.959 239.728 157.91L240 157.899Z" fill="#F7D050" stroke="black"/>
<path d="M296.508 157.899C297.234 157.899 297.941 158.129 298.528 158.555C299.041 158.928 299.44 159.436 299.682 160.019L299.777 160.274L301.906 166.828V166.829C302.114 167.474 302.523 168.037 303.072 168.436C303.621 168.835 304.282 169.048 304.96 169.047V169.048H311.853C312.579 169.048 313.286 169.278 313.874 169.705C314.46 170.131 314.897 170.732 315.122 171.422C315.346 172.112 315.346 172.856 315.122 173.546C314.925 174.15 314.566 174.687 314.086 175.097L313.874 175.265L308.297 179.316C307.748 179.714 307.339 180.277 307.129 180.922C306.92 181.567 306.92 182.262 307.13 182.907V182.908L309.26 189.462L309.262 189.468C309.494 190.156 309.498 190.9 309.274 191.59C309.078 192.195 308.715 192.729 308.231 193.135L308.016 193.301L308.009 193.306C307.425 193.737 306.718 193.971 305.992 193.974C305.356 193.971 304.736 193.793 304.2 193.459L303.975 193.306L303.972 193.304L298.396 189.253C297.916 188.904 297.35 188.696 296.761 188.649L296.508 188.639C295.915 188.639 295.334 188.803 294.831 189.112L294.62 189.253L289.043 193.304C288.456 193.731 287.75 193.96 287.024 193.96C286.298 193.96 285.591 193.731 285.004 193.304C284.417 192.878 283.98 192.277 283.755 191.586C283.559 190.983 283.535 190.338 283.682 189.724L283.755 189.462L285.885 182.909C286.096 182.264 286.097 181.568 285.887 180.922C285.677 180.277 285.268 179.714 284.718 179.316H284.719L279.142 175.265C278.555 174.839 278.118 174.237 277.894 173.546C277.67 172.856 277.67 172.112 277.894 171.422C278.118 170.732 278.556 170.131 279.143 169.705C279.657 169.332 280.262 169.109 280.891 169.059L281.163 169.048H288.055V169.047C288.734 169.048 289.395 168.835 289.944 168.436C290.493 168.037 290.901 167.475 291.11 166.83L293.24 160.274C293.464 159.584 293.901 158.982 294.488 158.555C295.001 158.182 295.607 157.959 296.237 157.91L296.508 157.899Z" fill="#F7D050" stroke="black"/>
<path d="M296.508 157.899C297.234 157.899 297.941 158.129 298.528 158.555C299.041 158.928 299.44 159.436 299.682 160.019L299.777 160.274L301.906 166.828V166.829C302.114 167.474 302.523 168.037 303.072 168.436C303.621 168.835 304.282 169.048 304.96 169.047V169.048H311.853C312.579 169.048 313.286 169.278 313.874 169.705C314.46 170.131 314.897 170.732 315.122 171.422C315.346 172.112 315.346 172.856 315.122 173.546C314.925 174.15 314.566 174.687 314.086 175.097L313.874 175.265L308.297 179.316C307.748 179.714 307.339 180.277 307.129 180.922C306.92 181.567 306.92 182.262 307.13 182.907V182.908L309.26 189.462L309.262 189.468C309.494 190.156 309.498 190.9 309.274 191.59C309.078 192.195 308.715 192.729 308.231 193.135L308.016 193.301L308.009 193.306C307.425 193.737 306.718 193.971 305.992 193.974C305.356 193.971 304.736 193.793 304.2 193.459L303.975 193.306L303.972 193.304L298.396 189.253C297.916 188.904 297.35 188.696 296.761 188.649L296.508 188.639C295.915 188.639 295.334 188.803 294.831 189.112L294.62 189.253L289.043 193.304C288.456 193.731 287.75 193.96 287.024 193.96C286.298 193.96 285.591 193.731 285.004 193.304C284.417 192.878 283.98 192.277 283.755 191.586C283.559 190.983 283.535 190.338 283.682 189.724L283.755 189.462L285.885 182.909C286.096 182.264 286.097 181.568 285.887 180.922C285.677 180.277 285.268 179.714 284.718 179.316H284.719L279.142 175.265C278.555 174.839 278.118 174.237 277.894 173.546C277.67 172.856 277.67 172.112 277.894 171.422C278.118 170.732 278.556 170.131 279.143 169.705C279.657 169.332 280.262 169.109 280.891 169.059L281.163 169.048H288.055V169.047C288.734 169.048 289.395 168.835 289.944 168.436C290.493 168.037 290.901 167.475 291.11 166.83L293.24 160.274C293.464 159.584 293.901 158.982 294.488 158.555C295.001 158.182 295.607 157.959 296.237 157.91L296.508 157.899Z" fill="#F7D050" stroke="black"/>
<path d="M400.041 194.864C399.126 194.86 398.236 194.566 397.5 194.023C396.753 193.493 396.197 192.736 395.914 191.865C395.631 190.995 395.636 190.056 395.928 189.188L398.059 182.633C398.211 182.166 398.212 181.663 398.06 181.196C397.908 180.729 397.612 180.323 397.214 180.035L391.638 175.983C390.899 175.446 390.349 174.689 390.067 173.821C389.785 172.952 389.785 172.017 390.067 171.148C390.349 170.28 390.899 169.523 391.638 168.986C392.377 168.45 393.266 168.161 394.18 168.161H401.072C401.563 168.162 402.042 168.006 402.439 167.718C402.836 167.429 403.132 167.022 403.282 166.555L405.413 159.999C405.695 159.131 406.245 158.374 406.984 157.837C407.722 157.301 408.612 157.012 409.525 157.012C410.438 157.012 411.328 157.301 412.067 157.837C412.806 158.374 413.355 159.131 413.638 159.999L415.768 166.555C415.918 167.022 416.214 167.429 416.611 167.718C417.008 168.006 417.487 168.161 417.978 168.161H424.871C425.784 168.161 426.673 168.45 427.412 168.986C428.151 169.523 428.701 170.28 428.983 171.148C429.265 172.017 429.265 172.952 428.983 173.821C428.701 174.689 428.151 175.446 427.412 175.983L421.836 180.035C421.438 180.322 421.142 180.729 420.99 181.196C420.838 181.663 420.839 182.166 420.991 182.633L423.121 189.188C423.404 190.056 423.404 190.992 423.121 191.86C422.839 192.729 422.289 193.486 421.55 194.022C420.812 194.559 419.922 194.848 419.009 194.848C418.096 194.848 417.206 194.559 416.467 194.022L410.891 189.971C410.494 189.682 410.016 189.526 409.525 189.526C409.034 189.526 408.556 189.682 408.159 189.971L402.582 194.022C401.846 194.566 400.956 194.86 400.041 194.864ZM409.525 187.525C410.438 187.525 411.328 187.815 412.066 188.353L417.643 192.404C418.04 192.693 418.518 192.848 419.009 192.848C419.5 192.849 419.978 192.693 420.375 192.405C420.772 192.116 421.068 191.709 421.219 191.243C421.371 190.776 421.371 190.273 421.219 189.806L419.089 183.251C418.805 182.383 418.804 181.447 419.087 180.578C419.369 179.709 419.92 178.952 420.66 178.417L426.236 174.365C426.633 174.076 426.929 173.67 427.081 173.203C427.232 172.736 427.232 172.233 427.081 171.766C426.929 171.3 426.633 170.893 426.236 170.604C425.839 170.316 425.361 170.161 424.87 170.161H417.978C417.064 170.162 416.174 169.874 415.435 169.337C414.695 168.8 414.146 168.042 413.865 167.173L411.735 160.618C411.584 160.151 411.288 159.744 410.891 159.456C410.494 159.167 410.016 159.012 409.525 159.012C409.034 159.012 408.556 159.167 408.159 159.456C407.762 159.744 407.466 160.151 407.315 160.618L405.184 167.173C404.904 168.042 404.354 168.8 403.615 169.337C402.876 169.874 401.986 170.162 401.072 170.161H394.18C393.689 170.161 393.21 170.316 392.813 170.604C392.416 170.893 392.121 171.3 391.969 171.766C391.817 172.233 391.817 172.736 391.969 173.203C392.121 173.669 392.416 174.076 392.813 174.365L398.39 178.417C399.13 178.952 399.681 179.709 399.963 180.578C400.245 181.447 400.245 182.383 399.961 183.251L397.83 189.806C397.679 190.273 397.679 190.776 397.83 191.242C397.982 191.709 398.278 192.116 398.675 192.404C399.072 192.693 399.55 192.848 400.041 192.848C400.532 192.848 401.01 192.693 401.407 192.404L406.983 188.353C407.722 187.815 408.612 187.525 409.525 187.525Z" fill="#3F3D56"/>
<path d="M343.041 194.703C342.126 194.699 341.236 194.405 340.5 193.862C339.753 193.332 339.197 192.576 338.914 191.705C338.631 190.834 338.636 189.895 338.928 189.027L341.059 182.472C341.211 182.005 341.212 181.502 341.06 181.036C340.908 180.569 340.612 180.162 340.214 179.874L334.638 175.822C333.899 175.286 333.349 174.529 333.067 173.66C332.785 172.792 332.785 171.856 333.067 170.988C333.349 170.119 333.899 169.362 334.638 168.826C335.377 168.289 336.266 168 337.18 168H344.072C344.563 168.001 345.042 167.846 345.439 167.557C345.836 167.269 346.132 166.861 346.282 166.394L348.413 159.839C348.695 158.97 349.245 158.214 349.984 157.677C350.722 157.14 351.612 156.851 352.525 156.851C353.438 156.851 354.328 157.14 355.067 157.677C355.806 158.214 356.355 158.97 356.638 159.839L358.768 166.394C358.918 166.861 359.214 167.269 359.611 167.557C360.008 167.846 360.487 168.001 360.978 168H367.871C368.784 168 369.673 168.289 370.412 168.826C371.151 169.363 371.701 170.119 371.983 170.988C372.265 171.856 372.265 172.792 371.983 173.66C371.701 174.529 371.151 175.285 370.412 175.822L364.836 179.874C364.438 180.162 364.142 180.568 363.99 181.035C363.838 181.502 363.839 182.005 363.991 182.472L366.121 189.027C366.404 189.896 366.404 190.831 366.121 191.7C365.839 192.568 365.289 193.325 364.55 193.862C363.812 194.399 362.922 194.688 362.009 194.688C361.096 194.688 360.206 194.399 359.467 193.862L353.891 189.811C353.494 189.521 353.016 189.365 352.525 189.365C352.034 189.365 351.556 189.521 351.159 189.811L345.582 193.862C344.846 194.405 343.956 194.7 343.041 194.703ZM352.525 187.364C353.438 187.364 354.328 187.654 355.066 188.192L360.643 192.244C361.04 192.532 361.518 192.688 362.009 192.688C362.5 192.688 362.978 192.533 363.375 192.244C363.772 191.956 364.068 191.549 364.219 191.082C364.371 190.615 364.371 190.112 364.219 189.646L362.089 183.09C361.805 182.222 361.804 181.286 362.087 180.417C362.369 179.548 362.92 178.791 363.66 178.256L369.236 174.204C369.633 173.916 369.929 173.509 370.081 173.042C370.232 172.575 370.232 172.073 370.081 171.606C369.929 171.139 369.633 170.732 369.236 170.444C368.839 170.155 368.361 170 367.87 170H360.978C360.064 170.002 359.174 169.713 358.435 169.176C357.695 168.639 357.146 167.882 356.865 167.012L354.735 160.457C354.584 159.99 354.288 159.583 353.891 159.295C353.494 159.006 353.016 158.851 352.525 158.851C352.034 158.851 351.556 159.006 351.159 159.295C350.762 159.583 350.466 159.99 350.315 160.457L348.184 167.012C347.904 167.882 347.354 168.639 346.615 169.176C345.876 169.713 344.986 170.002 344.072 170H337.18C336.689 170 336.211 170.155 335.814 170.444C335.416 170.732 335.121 171.139 334.969 171.606C334.818 172.072 334.818 172.575 334.969 173.042C335.121 173.509 335.416 173.916 335.813 174.204L341.39 178.256C342.13 178.792 342.681 179.548 342.963 180.417C343.245 181.286 343.245 182.222 342.961 183.09L340.83 189.646C340.679 190.112 340.679 190.615 340.831 191.082C340.982 191.549 341.278 191.955 341.675 192.244C342.072 192.532 342.55 192.688 343.041 192.688C343.532 192.688 344.01 192.532 344.407 192.244L349.984 188.192C350.722 187.654 351.612 187.364 352.525 187.364Z" fill="#3F3D56"/>
<path d="M55 30C53.2761 30 51.6228 30.6848 50.4038 31.9038C49.1848 33.1228 48.5 34.7761 48.5 36.5C48.5 38.2239 49.1848 39.8772 50.4038 41.0962C51.6228 42.3152 53.2761 43 55 43H384C385.724 43 387.377 42.3152 388.596 41.0962C389.815 39.8772 390.5 38.2239 390.5 36.5C390.5 34.7761 389.815 33.1228 388.596 31.9038C387.377 30.6848 385.724 30 384 30H55Z" fill="#CCCCCC"/>
<path d="M55 64C53.2761 64 51.6228 64.6848 50.4038 65.9038C49.1848 67.1228 48.5 68.7761 48.5 70.5C48.5 72.2239 49.1848 73.8772 50.4038 75.0962C51.6228 76.3152 53.2761 77 55 77H384C385.724 77 387.377 76.3152 388.596 75.0962C389.815 73.8772 390.5 72.2239 390.5 70.5C390.5 68.7761 389.815 67.1228 388.596 65.9038C387.377 64.6848 385.724 64 384 64H55Z" fill="#CCCCCC"/>
<path d="M55 98C53.2761 98 51.6228 98.6848 50.4038 99.9038C49.1848 101.123 48.5 102.776 48.5 104.5C48.5 106.224 49.1848 107.877 50.4038 109.096C51.6228 110.315 53.2761 111 55 111H384C385.724 111 387.377 110.315 388.596 109.096C389.815 107.877 390.5 106.224 390.5 104.5C390.5 102.776 389.815 101.123 388.596 99.9038C387.377 98.6848 385.724 98 384 98H55Z" fill="#CCCCCC"/>
<path d="M55 30C53.2761 30 51.6228 30.6848 50.4038 31.9038C49.1848 33.1228 48.5 34.7761 48.5 36.5C48.5 38.2239 49.1848 39.8772 50.4038 41.0962C51.6228 42.3152 53.2761 43 55 43H384C385.724 43 387.377 42.3152 388.596 41.0962C389.815 39.8772 390.5 38.2239 390.5 36.5C390.5 34.7761 389.815 33.1228 388.596 31.9038C387.377 30.6848 385.724 30 384 30H55Z" fill="#CCCCCC"/>
<path d="M55 64C53.2761 64 51.6228 64.6848 50.4038 65.9038C49.1848 67.1228 48.5 68.7761 48.5 70.5C48.5 72.2239 49.1848 73.8772 50.4038 75.0962C51.6228 76.3152 53.2761 77 55 77H384C385.724 77 387.377 76.3152 388.596 75.0962C389.815 73.8772 390.5 72.2239 390.5 70.5C390.5 68.7761 389.815 67.1228 388.596 65.9038C387.377 64.6848 385.724 64 384 64H55Z" fill="#CCCCCC"/>
<path d="M55 98C53.2761 98 51.6228 98.6848 50.4038 99.9038C49.1848 101.123 48.5 102.776 48.5 104.5C48.5 106.224 49.1848 107.877 50.4038 109.096C51.6228 110.315 53.2761 111 55 111H384C385.724 111 387.377 110.315 388.596 109.096C389.815 107.877 390.5 106.224 390.5 104.5C390.5 102.776 389.815 101.123 388.596 99.9038C387.377 98.6848 385.724 98 384 98H55Z" fill="#CCCCCC"/>
</g>
<defs>
<clipPath id="clip0_3_4">
<rect width="801.953" height="537" fill="white"/>
</clipPath>
</defs>
</svg>
